<svg width="139" height="62" viewBox="0 0 139 62" fill="none" xmlns="http://www.w3.org/2000/svg">
<mask id="path-1-inside-1_219_38" fill="white">
<path d="M55.1251 1.14575C22.9234 8.4227 12.342 25.5866 8.29367 27.4303C5.43838 29.4584 0 31.6536 0 31.6536L0.283792 31.6824H0.359083V31.6882C0.434089 31.6984 0.509425 31.7061 0.584958 31.7112H0.671833V31.7228L0.822417 31.7343H0.973V31.7516C1.01933 31.7573 1.07725 31.7573 1.11779 31.7689H1.23942V31.7804C1.27996 31.7804 1.32629 31.7804 1.36104 31.7919H1.47687V31.8034L1.66221 31.8149H1.67379L1.96337 31.8668H2.00971V31.8783L2.07921 31.8956H2.17767V31.9129H2.30508V31.9417H2.40933V31.9705H2.53096V31.9936H2.641V32.0166H2.73946V32.0512H2.82054V32.0742H2.92479V32.0973H3.00587V32.1261H3.08117V32.1434H3.16804V32.1664L3.19121 32.1722H3.24912V32.1895L3.28387 32.1952H3.31862V32.2067C3.33742 32.2128 3.35685 32.2167 3.37654 32.2183L3.49817 32.2759H3.50975C3.5218 32.2874 3.53546 32.2971 3.55029 32.3047H3.59662V32.3277H3.64296V32.3565H3.68929V32.3738H3.74721V32.4084H3.82829V32.4314H3.85146V32.4545H3.89779V32.4775H3.9615V32.5006H4.00783V32.5351H4.07154V32.5582H4.11788V32.587H4.16421V32.6043H4.22212V32.6331H4.26846V32.6561H4.30321V32.6792H4.34954V32.7138H4.40167V32.7368H4.43642V32.7656H4.48275V32.7887H4.54646V32.8175H4.56962V32.8348H4.61596V32.8693H4.63912V32.8924H4.69704V32.9154H4.72021V32.9385H4.76654V32.9673H4.80129V32.9846L4.82446 32.9961H4.84762V33.0076L4.87079 33.0191L4.87658 33.0249C4.89185 33.029 4.90581 33.0369 4.91712 33.0479H4.9345L5.03875 33.1228C5.05033 33.1344 5.07929 33.1632 5.10246 33.1747H5.11404V33.1805L5.13142 33.1977H5.14879V33.2093L5.16617 33.2265L5.17196 33.2323L5.19512 33.2496H5.21829V33.2669L5.22987 33.2784H5.24146V33.2899C5.25304 33.2899 5.25304 33.3014 5.25883 33.3014H5.27621V33.3245L5.29358 33.336H5.32833V33.3533H5.3515V33.3763H5.38625V33.3994H5.43258V33.4282H5.38625V33.457H5.40942V33.4801H5.44417V33.5089H5.4905V33.5377H5.51367V33.5607H5.54842V33.5838H5.57158V33.6068H5.61792V33.6414H5.64108V33.6644H5.67583V33.6932H5.699V33.7163H5.72796V33.7451H5.78587V33.7566H5.80904V33.7912H5.838V33.8142H5.84958V33.8373H5.87275V33.8661H5.93067V33.8891H5.95383V33.9179H5.977V33.941H6.01175V33.9698H6.03492V33.9986H6.05808V34.0217H6.08125V34.0447H6.13917V34.0677H6.16813V34.1023H6.19129V34.1254H6.21446V34.1542H6.24921V34.1772H6.27237V34.206H6.31292V34.2291H6.33608V34.2636H6.37083V34.2752H6.394V34.2982H6.41717V34.327H6.44033V34.3501H6.47508V34.3789H6.49825V34.3962L6.50983 34.4019H6.52142V34.4134L6.54458 34.4365L6.56196 34.4595H6.59671V34.4826H6.62567V34.5056H6.64883V34.5287H6.672V34.546L6.68937 34.5632H6.70675V34.5748L6.71833 34.5863H6.73571V34.5978C6.77046 34.6266 6.79362 34.6382 6.82837 34.6785C6.90039 34.7835 6.9818 34.8819 7.07162 34.9723L7.17008 35.0991L7.17587 35.1048C7.25221 35.1981 7.32751 35.2922 7.40175 35.3872H7.40754L7.76662 35.8135L7.76083 35.825C8.03304 36.1535 8.34 36.4992 8.68171 36.8967H8.6875V36.9025C9.54467 37.8762 10.6451 39.0343 11.9772 40.3306L12.064 40.4171L12.0872 40.4401C20.2361 48.2759 37.2172 60.6231 64.6582 61.9253C66.9285 62.0405 69.1351 62.0174 71.2838 61.8907H71.336C82.149 61.2627 91.3809 57.8864 98.8811 53.6631C101.87 51.9807 104.592 50.1658 107.024 48.3278C115.451 41.9785 120.449 35.4966 121.66 33.843C127.585 31.3022 137.755 31.5384 137.755 31.5384L139 27.8279C139 27.8279 129.148 28.5827 124.393 27.5225C122.905 27.1941 121.637 26.4163 120.559 25.5117C119.41 23.9066 118.162 22.3731 116.824 20.9197C116.714 20.816 116.615 20.7584 116.511 20.6662C108.298 11.9027 88.0739 -4.46608 55.1251 1.14575Z"/>
</mask>
<path d="M55.1251 1.14575C22.9234 8.4227 12.342 25.5866 8.29367 27.4303C5.43838 29.4584 0 31.6536 0 31.6536L0.283792 31.6824H0.359083V31.6882C0.434089 31.6984 0.509425 31.7061 0.584958 31.7112H0.671833V31.7228L0.822417 31.7343H0.973V31.7516C1.01933 31.7573 1.07725 31.7573 1.11779 31.7689H1.23942V31.7804C1.27996 31.7804 1.32629 31.7804 1.36104 31.7919H1.47687V31.8034L1.66221 31.8149H1.67379L1.96337 31.8668H2.00971V31.8783L2.07921 31.8956H2.17767V31.9129H2.30508V31.9417H2.40933V31.9705H2.53096V31.9936H2.641V32.0166H2.73946V32.0512H2.82054V32.0742H2.92479V32.0973H3.00587V32.1261H3.08117V32.1434H3.16804V32.1664L3.19121 32.1722H3.24912V32.1895L3.28387 32.1952H3.31862V32.2067C3.33742 32.2128 3.35685 32.2167 3.37654 32.2183L3.49817 32.2759H3.50975C3.5218 32.2874 3.53546 32.2971 3.55029 32.3047H3.59662V32.3277H3.64296V32.3565H3.68929V32.3738H3.74721V32.4084H3.82829V32.4314H3.85146V32.4545H3.89779V32.4775H3.9615V32.5006H4.00783V32.5351H4.07154V32.5582H4.11788V32.587H4.16421V32.6043H4.22212V32.6331H4.26846V32.6561H4.30321V32.6792H4.34954V32.7138H4.40167V32.7368H4.43642V32.7656H4.48275V32.7887H4.54646V32.8175H4.56962V32.8348H4.61596V32.8693H4.63912V32.8924H4.69704V32.9154H4.72021V32.9385H4.76654V32.9673H4.80129V32.9846L4.82446 32.9961H4.84762V33.0076L4.87079 33.0191L4.87658 33.0249C4.89185 33.029 4.90581 33.0369 4.91712 33.0479H4.9345L5.03875 33.1228C5.05033 33.1344 5.07929 33.1632 5.10246 33.1747H5.11404V33.1805L5.13142 33.1977H5.14879V33.2093L5.16617 33.2265L5.17196 33.2323L5.19512 33.2496H5.21829V33.2669L5.22987 33.2784H5.24146V33.2899C5.25304 33.2899 5.25304 33.3014 5.25883 33.3014H5.27621V33.3245L5.29358 33.336H5.32833V33.3533H5.3515V33.3763H5.38625V33.3994H5.43258V33.4282H5.38625V33.457H5.40942V33.4801H5.44417V33.5089H5.4905V33.5377H5.51367V33.5607H5.54842V33.5838H5.57158V33.6068H5.61792V33.6414H5.64108V33.6644H5.67583V33.6932H5.699V33.7163H5.72796V33.7451H5.78587V33.7566H5.80904V33.7912H5.838V33.8142H5.84958V33.8373H5.87275V33.8661H5.93067V33.8891H5.95383V33.9179H5.977V33.941H6.01175V33.9698H6.03492V33.9986H6.05808V34.0217H6.08125V34.0447H6.13917V34.0677H6.16813V34.1023H6.19129V34.1254H6.21446V34.1542H6.24921V34.1772H6.27237V34.206H6.31292V34.2291H6.33608V34.2636H6.37083V34.2752H6.394V34.2982H6.41717V34.327H6.44033V34.3501H6.47508V34.3789H6.49825V34.3962L6.50983 34.4019H6.52142V34.4134L6.54458 34.4365L6.56196 34.4595H6.59671V34.4826H6.62567V34.5056H6.64883V34.5287H6.672V34.546L6.68937 34.5632H6.70675V34.5748L6.71833 34.5863H6.73571V34.5978C6.77046 34.6266 6.79362 34.6382 6.82837 34.6785C6.90039 34.7835 6.9818 34.8819 7.07162 34.9723L7.17008 35.0991L7.17587 35.1048C7.25221 35.1981 7.32751 35.2922 7.40175 35.3872H7.40754L7.76662 35.8135L7.76083 35.825C8.03304 36.1535 8.34 36.4992 8.68171 36.8967H8.6875V36.9025C9.54467 37.8762 10.6451 39.0343 11.9772 40.3306L12.064 40.4171L12.0872 40.4401C20.2361 48.2759 37.2172 60.6231 64.6582 61.9253C66.9285 62.0405 69.1351 62.0174 71.2838 61.8907H71.336C82.149 61.2627 91.3809 57.8864 98.8811 53.6631C101.87 51.9807 104.592 50.1658 107.024 48.3278C115.451 41.9785 120.449 35.4966 121.66 33.843C127.585 31.3022 137.755 31.5384 137.755 31.5384L139 27.8279C139 27.8279 129.148 28.5827 124.393 27.5225C122.905 27.1941 121.637 26.4163 120.559 25.5117C119.41 23.9066 118.162 22.3731 116.824 20.9197C116.714 20.816 116.615 20.7584 116.511 20.6662C108.298 11.9027 88.0739 -4.46608 55.1251 1.14575Z" fill="#2CBE64" stroke="#242529" stroke-width="2" mask="url(#path-1-inside-1_219_38)"/>
<path d="M14.12 35L17.048 28.304H15.56V26.6H23.9L27.548 35H24.308L23.396 32.9H18.284L17.372 35H14.12ZM19.028 31.196H22.652L21.38 28.304H20.3L19.028 31.196ZM28.6269 34.64L31.6269 34.94V35.48H36.3669V34.64L28.6269 33.68V28.64H36.0069L36.6069 29.24L37.2189 28.64H39.3669V37.04H28.6269V34.64ZM31.6269 32.54L36.3669 33.14V30.2H31.6269V32.54ZM40.4492 30.2V28.64H44.0972L44.7092 29.24L45.3092 28.64H51.3692V31.28L48.3692 30.98V30.2H44.9492V35H41.9492V30.2H40.4492ZM52.8144 35V28.64H63.6744V35H52.8144ZM55.8144 33.44H60.6744V30.2H55.8144V33.44ZM69.5586 30.2V28.64H71.0586V26.6H74.0586V28.64H76.9986V30.2H74.0586V33.08L74.7786 33.44H79.3986V35H73.9986L71.0586 33.56V30.2H69.5586ZM79.1445 30.2V28.64H91.2645V31.82L83.6445 32.9V33.44H88.2645V32.9L91.2645 32.6V35H80.6445V30.2H79.1445ZM83.6445 31.352L88.2645 30.74V30.2H83.6445V31.352ZM92.3398 30.2V28.64H104.46V31.04L101.46 30.74V30.2H96.8398V33.44H101.46V32.9L104.46 32.6V35H93.8398V30.2H92.3398ZM106.498 35V26.6H109.498V28.4L117.238 29.36V35H114.238V30.5L109.498 29.9V35H106.498Z" fill="#F4F5F6"/>
</svg>
